<?xml version="1.0" encoding="UTF-8"?>
<!DOCTYPE svg PUBLIC "-//W3C//DTD SVG 1.1//EN" "http://www.w3.org/Graphics/SVG/1.1/DTD/svg11.dtd">
<svg xmlns="http://www.w3.org/2000/svg" version="1.1" width="1080px" height="1080px" style="shape-rendering:geometricPrecision; text-rendering:geometricPrecision; image-rendering:optimizeQuality; fill-rule:evenodd; clip-rule:evenodd" xmlns:xlink="http://www.w3.org/1999/xlink">
<g><path style="opacity:0.993" fill="#0a7656" d="M 520.5,35.5 C 660.645,33.1321 781.978,78.9654 884.5,173C 1007.31,294.738 1058.14,441.905 1037,614.5C 1013.41,755.599 944.245,868.099 829.5,952C 700.989,1039.2 560.989,1064.53 409.5,1028C 275.407,990.08 172.573,911.58 101,792.5C 32.8307,669.814 16.4974,540.48 52,404.5C 96.8262,255.016 189.66,146.849 330.5,80C 391.139,53.1719 454.472,38.3386 520.5,35.5 Z"/></g>
<g><path style="opacity:1" fill="#fbfdfc" d="M 508.5,51.5 C 667.561,45.8123 800.394,101.479 907,218.5C 1004.23,334.488 1042.23,467.821 1021,618.5C 996.68,752.05 930.18,858.883 821.5,939C 710.043,1015.23 587.376,1042.9 453.5,1022C 307.33,993.08 195.164,915.58 117,789.5C 52.071,675.67 33.7377,554.67 62,426.5C 102.066,274.115 192.9,163.615 334.5,95C 389.926,69.8102 447.926,55.3102 508.5,51.5 Z"/></g>
<g><path style="opacity:1" fill="#097655" d="M 524.5,66.5 C 674.446,65.9313 798.946,121.265 898,232.5C 991.61,346.242 1026.94,476.242 1004,622.5C 977.88,757.182 908.046,862.349 794.5,938C 683.277,1007.42 563.277,1028.75 434.5,1002C 293.915,967.374 188.748,886.874 119,760.5C 61.837,646.736 50.1703,528.403 84,405.5C 122.379,283.824 196.545,190.991 306.5,127C 374.482,89.6732 447.148,69.5065 524.5,66.5 Z"/></g>
<g><path style="opacity:1" fill="#fdfefd" d="M 520.5,100.5 C 536.267,99.8975 551.934,100.731 567.5,103C 586.91,106.968 595.077,118.801 592,138.5C 589.157,144.858 585.323,150.525 580.5,155.5C 598.785,167.904 602.618,183.904 592,203.5C 587.15,209.506 580.983,213.339 573.5,215C 546.537,216.522 519.537,217.355 492.5,217.5C 490.591,179.512 488.925,141.512 487.5,103.5C 498.68,102.875 509.68,101.875 520.5,100.5 Z"/></g>
<g><path style="opacity:1" fill="#fdfefd" d="M 633.5,112.5 C 646.474,115.491 659.141,119.491 671.5,124.5C 662.238,147.452 654.072,170.786 647,194.5C 645.183,203.7 648.683,209.867 657.5,213C 664.373,215.98 670.206,214.813 675,209.5C 680.796,200.241 685.796,190.575 690,180.5C 695.505,165.983 701.005,151.483 706.5,137C 718.855,140.509 730.522,145.675 741.5,152.5C 732.404,176.618 722.238,200.285 711,223.5C 701.732,240.88 687.232,247.713 667.5,244C 645.724,241.698 627.891,232.198 614,215.5C 606.97,204.51 605.637,192.844 610,180.5C 616.942,157.506 624.776,134.839 633.5,112.5 Z"/></g>
<g><path style="opacity:1" fill="#fdfefd" d="M 407.5,119.5 C 423.03,116.957 436.53,120.957 448,131.5C 458.957,147.731 459.124,164.065 448.5,180.5C 461.136,193.668 474.469,206.168 488.5,218C 475.985,220.754 463.485,223.587 451,226.5C 441.093,218.792 431.26,210.959 421.5,203C 415.218,200.925 409.885,202.425 405.5,207.5C 409.597,216.625 413.597,225.792 417.5,235C 406.398,242.218 394.731,248.385 382.5,253.5C 368.274,218.329 353.941,183.162 339.5,148C 360.819,135.513 383.486,126.013 407.5,119.5 Z"/></g>
<g><path style="opacity:1" fill="#0e7857" d="M 526.5,124.5 C 532.842,124.334 539.175,124.5 545.5,125C 548.034,125.516 550.2,126.683 552,128.5C 554.929,137.227 552.096,142.727 543.5,145C 538.511,145.499 533.511,145.666 528.5,145.5C 527.833,138.5 527.167,131.5 526.5,124.5 Z"/></g>
<g><path style="opacity:1" fill="#0f7858" d="M 401.5,148.5 C 413.385,148.566 418.552,154.566 417,166.5C 416.55,168.519 415.717,170.352 414.5,172C 407.246,175.131 399.913,177.964 392.5,180.5C 389.615,173.363 386.615,166.196 383.5,159C 383.645,158.228 383.978,157.561 384.5,157C 390.29,154.105 395.956,151.272 401.5,148.5 Z"/></g>
<g><path style="opacity:1" fill="#0f7857" d="M 529.5,167.5 C 537.571,167.137 545.571,167.637 553.5,169C 560.285,175.892 559.952,182.559 552.5,189C 545.254,190.391 537.921,190.891 530.5,190.5C 529.687,182.862 529.354,175.196 529.5,167.5 Z"/></g>
<g><path style="opacity:1" fill="#fdfdfd" d="M 772.5,189.5 C 811.37,187.923 836.704,205.59 848.5,242.5C 848.471,244.029 847.804,245.196 846.5,246C 839.962,250.033 833.296,253.866 826.5,257.5C 823.221,243.071 815.221,232.238 802.5,225C 781.416,220.296 766.916,228.129 759,248.5C 757.368,267.541 765.535,280.374 783.5,287C 787.506,288.168 791.506,289.335 795.5,290.5C 791.75,297.002 787.75,303.335 783.5,309.5C 757.438,306.974 738.938,293.64 728,269.5C 718.182,228.781 733.016,202.114 772.5,189.5 Z"/></g>
<g><path style="opacity:1" fill="#fdfefd" d="M 272.5,189.5 C 308.111,211.645 343.777,233.811 379.5,256C 369.973,263.261 359.973,269.761 349.5,275.5C 342.4,272.242 335.4,268.742 328.5,265C 327.167,264.333 325.833,264.333 324.5,265C 314.806,273.033 305.473,281.366 296.5,290C 299.971,297.775 303.304,305.609 306.5,313.5C 297.481,323.352 288.647,333.352 280,343.5C 263.11,304.83 246.61,265.997 230.5,227C 244.376,214.287 258.376,201.787 272.5,189.5 Z"/></g>
<g><path style="opacity:1" fill="#107958" d="M 269.5,228.5 C 280.415,234.744 291.082,241.411 301.5,248.5C 296.134,254.032 290.3,259.032 284,263.5C 278.856,251.885 274.022,240.218 269.5,228.5 Z"/></g>
<g><path style="opacity:1" fill="#fbfbfb" d="M 519.5,246.5 C 637.026,244.497 726.86,292.831 789,391.5C 836.914,478.661 841.248,567.994 802,659.5C 760.802,744.035 694.635,798.201 603.5,822C 496.146,843.317 403.646,815.817 326,739.5C 257.949,663.973 233.282,575.973 252,475.5C 272.591,390.733 320.424,326.566 395.5,283C 434.291,261.807 475.624,249.64 519.5,246.5 Z"/></g>
<g><path style="opacity:1" fill="#fdfdfd" d="M 872.5,257.5 C 880.439,266.792 888.106,276.459 895.5,286.5C 885.579,295.797 875.246,304.63 864.5,313C 881.097,315.508 897.763,317.508 914.5,319C 921.008,329.68 927.008,340.68 932.5,352C 913.684,351.001 894.851,349.834 876,348.5C 874.5,348.833 873,349.167 871.5,349.5C 858.995,369.839 846.995,390.506 835.5,411.5C 828.387,400.276 822.054,388.609 816.5,376.5C 823.972,360.888 831.972,345.555 840.5,330.5C 840.167,330.167 839.833,329.833 839.5,329.5C 827.5,338.167 815.5,346.833 803.5,355.5C 795.729,346.731 788.729,337.398 782.5,327.5C 790.899,319.784 799.566,312.284 808.5,305C 829.734,288.918 851.068,273.085 872.5,257.5 Z"/></g>
<g><path style="opacity:1" fill="#fdfdfd" d="M 194.5,265.5 C 203.22,269.363 211.554,274.03 219.5,279.5C 214.834,288.169 209.668,296.502 204,304.5C 202.813,306.044 202.48,307.711 203,309.5C 225.838,324.252 248.505,339.252 271,354.5C 270.235,359.055 268.568,363.388 266,367.5C 262.028,373.638 257.862,379.638 253.5,385.5C 229.533,370.698 205.7,355.698 182,340.5C 175.501,349.494 169.501,358.827 164,368.5C 156.081,363.458 148.248,358.291 140.5,353C 158.135,323.554 176.135,294.388 194.5,265.5 Z"/></g>
<g><path style="opacity:1" fill="#040404" d="M 421.5,778.5 C 420.833,780.833 420.167,783.167 419.5,785.5C 412.944,783.914 408.277,780.248 405.5,774.5C 406.58,767.334 409.08,760.667 413,754.5C 421.206,744.089 427.873,732.756 433,720.5C 434.889,711.679 433.222,703.679 428,696.5C 426.415,704.849 424.748,713.183 423,721.5C 413.388,737.731 404.054,754.064 395,770.5C 385.625,765.976 377.291,759.976 370,752.5C 369.383,751.551 369.549,750.718 370.5,750C 373.702,748.237 376.702,746.237 379.5,744C 377.911,740.159 375.578,736.826 372.5,734C 370.5,733.333 368.5,733.333 366.5,734C 362.722,735.639 358.889,737.139 355,738.5C 349.391,735.226 344.724,730.892 341,725.5C 340.493,724.004 340.993,722.837 342.5,722C 347.548,719.456 352.881,717.789 358.5,717C 361.394,716.131 362.561,714.298 362,711.5C 358.877,705.004 353.71,702.504 346.5,704C 340.984,706.675 335.484,709.509 330,712.5C 325.806,707.94 321.972,703.106 318.5,698C 324.166,693.831 330.166,690.165 336.5,687C 341.401,685.675 346.401,685.175 351.5,685.5C 352.584,691.262 354.918,696.429 358.5,701C 368.3,701.959 377.3,699.626 385.5,694C 394.681,687.242 403.681,680.242 412.5,673C 396.382,651.866 393.882,629.366 405,605.5C 414.56,592.264 422.893,578.264 430,563.5C 431.378,556.882 431.711,550.215 431,543.5C 424.436,526.622 420.602,509.122 419.5,491C 419.775,474.716 424.442,459.882 433.5,446.5C 433.167,446.167 432.833,445.833 432.5,445.5C 425.093,450.08 419.593,456.413 416,464.5C 408.844,478.671 406.51,493.671 409,509.5C 411.33,520.493 413.663,531.493 416,542.5C 416.905,550.911 416.572,559.245 415,567.5C 406.653,582.199 398.319,596.865 390,611.5C 386.778,618.499 384.778,625.833 384,633.5C 376.443,639.389 368.61,644.889 360.5,650C 354.912,651.289 349.245,651.789 343.5,651.5C 343.311,657.282 343.978,662.948 345.5,668.5C 340.629,668.192 335.963,669.025 331.5,671C 324.784,675.358 317.784,679.191 310.5,682.5C 308.813,682.24 307.313,681.573 306,680.5C 303.772,676.54 301.938,672.373 300.5,668C 309.482,662.361 318.482,656.694 327.5,651C 331.632,649.1 335.966,648.267 340.5,648.5C 340.797,642.853 339.464,637.686 336.5,633C 331.196,632.32 326.196,633.32 321.5,636C 316.167,639.333 310.833,642.667 305.5,646C 289.623,654.804 282.956,650.138 285.5,632C 288.471,631.206 291.471,630.539 294.5,630C 304.813,624.366 315.147,618.7 325.5,613C 328.815,612.059 332.148,611.226 335.5,610.5C 336.494,605.544 336.827,600.544 336.5,595.5C 330.989,595.205 325.656,596.038 320.5,598C 312.167,602.333 303.833,606.667 295.5,611C 291.227,613.027 286.727,614.193 282,614.5C 280.019,614.371 278.353,613.704 277,612.5C 275.193,606.608 274.026,600.608 273.5,594.5C 281.144,594.59 288.477,593.09 295.5,590C 306.276,583.279 317.609,577.612 329.5,573C 332.5,572.667 335.5,572.333 338.5,572C 341.164,566.909 342.497,561.409 342.5,555.5C 337.821,555.334 333.155,555.501 328.5,556C 315.647,561.924 302.647,567.591 289.5,573C 282.757,575.158 276.09,574.991 269.5,572.5C 268.018,564.907 267.352,557.24 267.5,549.5C 279.428,552.59 291.094,551.756 302.5,547C 313.591,541.955 324.591,536.622 335.5,531C 340.584,530.827 345.584,530.161 350.5,529C 361.756,513.538 357.756,508.205 338.5,513C 326.925,517.787 315.592,523.12 304.5,529C 292.806,534.949 281.139,534.949 269.5,529C 268.236,527.139 267.236,525.139 266.5,523C 273.038,448.595 303.372,385.928 357.5,335C 432.19,272.253 517.19,252.92 612.5,277C 678.862,298.377 731.029,338.21 769,396.5C 793.611,436.67 806.278,480.336 807,527.5C 795.428,535.905 783.261,536.739 770.5,530C 760.99,524.745 751.324,519.745 741.5,515C 733.631,512.366 725.631,511.866 717.5,513.5C 718.439,518.924 720.439,523.924 723.5,528.5C 729.148,529.73 734.815,530.896 740.5,532C 753.853,538.036 767.186,544.036 780.5,550C 789.364,552.33 798.031,551.83 806.5,548.5C 807.902,556.919 807.569,565.252 805.5,573.5C 795.447,575.513 785.78,574.346 776.5,570C 768.319,565.743 759.986,561.743 751.5,558C 744.972,556.058 738.305,555.225 731.5,555.5C 733.012,560.728 734.012,566.062 734.5,571.5C 741.078,571.916 747.412,573.416 753.5,576C 763.5,581.333 773.5,586.667 783.5,592C 789.326,594.099 795.326,595.432 801.5,596C 800.045,601.023 799.212,606.19 799,611.5C 797.982,614.683 795.815,616.016 792.5,615.5C 786.548,614.572 780.881,612.738 775.5,610C 765.564,603.114 754.731,598.281 743,595.5C 741.019,595.629 739.353,596.296 738,597.5C 737.204,601.755 737.371,605.921 738.5,610C 751.945,614.389 764.611,620.389 776.5,628C 780.905,630.372 785.572,631.872 790.5,632.5C 789.822,639.043 787.488,644.876 783.5,650C 780.743,650.584 778.077,650.25 775.5,649C 766.657,644.078 757.657,639.412 748.5,635C 744.306,633.584 740.139,633.417 736,634.5C 735.272,638.536 734.439,642.536 733.5,646.5C 737.192,647.564 740.858,648.73 744.5,650C 754.167,655.5 763.833,661 773.5,666.5C 774.631,668.074 774.798,669.741 774,671.5C 771.833,675 769.667,678.5 767.5,682C 766.167,682.667 764.833,682.667 763.5,682C 755.675,677.616 747.675,673.616 739.5,670C 736.173,669.39 732.839,668.89 729.5,668.5C 730.427,662.866 731.093,657.199 731.5,651.5C 721.098,652.976 712.098,650.143 704.5,643C 700.687,639.264 696.687,635.764 692.5,632.5C 691.445,626.389 689.945,620.389 688,614.5C 679.399,598.907 670.399,583.573 661,568.5C 657.263,558.706 656.596,548.706 659,538.5C 669.85,510.742 668.85,483.408 656,456.5C 652.239,450.514 647.406,446.514 641.5,444.5C 649.603,458.808 654.27,474.141 655.5,490.5C 655.09,496.507 654.59,502.507 654,508.5C 651.128,520.992 647.794,533.325 644,545.5C 642.638,555.055 644.305,564.055 649,572.5C 655.916,582.663 662.583,592.997 669,603.5C 677.407,616.453 680.074,630.453 677,645.5C 672.85,654.469 668.683,663.469 664.5,672.5C 675.917,684.382 689.251,693.548 704.5,700C 708.449,701.184 712.449,701.518 716.5,701C 719.221,695.65 721.721,690.15 724,684.5C 726.401,683.398 728.901,683.231 731.5,684C 739.009,688.255 746.676,692.255 754.5,696C 755.464,698.647 754.964,701.147 753,703.5C 750.768,706.659 748.101,709.326 745,711.5C 738.994,708.609 732.827,706.109 726.5,704C 717.255,702.068 712.589,705.901 712.5,715.5C 718.943,716.371 724.943,718.537 730.5,722C 732.007,722.837 732.507,724.004 732,725.5C 728.333,730.5 724,734.833 719,738.5C 713.278,736.036 707.445,734.202 701.5,733C 698.644,735.848 696.644,739.181 695.5,743C 695.833,743.833 696.167,744.667 696.5,745.5C 700.238,747.076 703.571,749.243 706.5,752C 698.713,759.394 690.046,765.561 680.5,770.5C 673.063,755.227 664.563,740.56 655,726.5C 650.25,717.088 647.917,707.088 648,696.5C 647.333,695.167 646.667,695.167 646,696.5C 644.561,698.275 643.561,700.275 643,702.5C 642.333,709.167 642.333,715.833 643,722.5C 650.484,736.132 658.484,749.466 667,762.5C 668.473,766.417 669.639,770.417 670.5,774.5C 670.594,776.912 669.594,778.745 667.5,780C 663.954,781.793 660.287,783.293 656.5,784.5C 655.379,777.636 653.545,770.97 651,764.5C 644.585,753.334 637.918,742.334 631,731.5C 621.161,716.71 621.161,702.043 631,687.5C 639.719,676.448 648.053,665.114 656,653.5C 664.938,637.632 664.605,621.966 655,606.5C 645.419,594.349 637.086,581.349 630,567.5C 628.024,561.627 627.357,555.627 628,549.5C 633.3,532.661 637.967,515.661 642,498.5C 644.533,475.101 638.033,454.601 622.5,437C 619.264,434.132 615.764,431.632 612,429.5C 611.333,430.167 611.333,430.833 612,431.5C 624.954,447.092 631.454,465.092 631.5,485.5C 631.683,494.048 630.517,502.382 628,510.5C 622.497,521.839 617.83,533.505 614,545.5C 612.702,554.468 613.702,563.135 617,571.5C 628.122,586.074 637.456,601.741 645,618.5C 649.019,630.608 648.019,642.275 642,653.5C 630.842,667.139 621.176,681.805 613,697.5C 608.943,709.914 609.943,721.914 616,733.5C 623.42,744.001 630.087,755.001 636,766.5C 639.132,774.872 640.299,783.539 639.5,792.5C 633.314,793.895 627.314,795.895 621.5,798.5C 621.167,798 620.833,797.5 620.5,797C 623.32,787.678 622.82,778.512 619,769.5C 613.695,757.553 607.361,746.219 600,735.5C 590.428,720.816 589.095,705.483 596,689.5C 604.423,677.655 613.09,665.988 622,654.5C 632.757,638.701 633.09,622.701 623,606.5C 617,598.5 611,590.5 605,582.5C 597.076,570.346 595.41,557.346 600,543.5C 606.274,526.422 611.94,509.088 617,491.5C 621.194,463.232 611.694,440.899 588.5,424.5C 588.167,424.833 587.833,425.167 587.5,425.5C 605.811,445.399 611.978,468.733 606,495.5C 599.546,512.407 592.546,529.073 585,545.5C 582.313,556.858 583.313,567.858 588,578.5C 597,590.491 605,603.158 612,616.5C 616.08,628.303 615.08,639.637 609,650.5C 597.853,663.455 588.186,677.455 580,692.5C 577.044,702.046 576.711,711.713 579,721.5C 585.285,734.346 591.952,747.012 599,759.5C 605.295,774.204 606.129,789.204 601.5,804.5C 595.454,805.243 589.454,806.243 583.5,807.5C 587.748,796.126 588.581,784.459 586,772.5C 578.963,753.092 570.297,734.426 560,716.5C 556.826,704.747 558.493,693.747 565,683.5C 574.734,671.699 583.734,659.365 592,646.5C 598.737,634.968 599.071,623.301 593,611.5C 587.053,602.553 580.72,593.886 574,585.5C 571.443,581.055 569.443,576.389 568,571.5C 565.173,569.039 561.84,568.039 558,568.5C 550.537,570.074 543.037,571.408 535.5,572.5C 529.824,572.886 524.491,571.719 519.5,569C 516.167,568.333 512.833,568.333 509.5,569C 508.667,569.833 507.833,570.667 507,571.5C 504.526,577.252 501.86,582.919 499,588.5C 492.501,597.494 486.501,606.827 481,616.5C 477.711,624.86 477.711,633.193 481,641.5C 482.746,645.327 484.746,648.993 487,652.5C 497.59,664.419 506.59,677.419 514,691.5C 517.51,702.074 516.844,712.407 512,722.5C 506.256,734.987 500.256,747.32 494,759.5C 487.088,775.835 486.754,792.168 493,808.5C 488.251,807.695 483.418,807.195 478.5,807C 475.388,806.375 473.555,804.542 473,801.5C 469.046,788.149 470.046,775.149 476,762.5C 484.343,748.469 491.343,733.803 497,718.5C 499.179,705.058 496.846,692.392 490,680.5C 481.281,669.448 472.947,658.114 465,646.5C 459.284,631.672 460.95,617.672 470,604.5C 477.127,594.695 483.46,584.361 489,573.5C 492.088,566.446 493.088,559.113 492,551.5C 485.286,533.735 478.286,516.069 471,498.5C 466.425,483.131 466.425,467.797 471,452.5C 475.784,443.461 480.784,434.794 486,426.5C 469.842,437.129 460.509,452.129 458,471.5C 457.161,480.22 457.495,488.887 459,497.5C 464.389,512.61 470.056,527.61 476,542.5C 480.039,555.253 479.039,567.586 473,579.5C 464.09,590.311 456.424,601.977 450,614.5C 444.632,627.975 445.632,640.975 453,653.5C 462.385,665.217 471.385,677.217 480,689.5C 485.088,704.075 484.421,718.408 478,732.5C 473.838,740.828 469.171,748.828 464,756.5C 458.522,765.445 455.355,775.112 454.5,785.5C 454.46,789.955 455.127,794.288 456.5,798.5C 456,798.833 455.5,799.167 455,799.5C 448.86,797.346 442.86,795.012 437,792.5C 435.968,784.669 436.635,777.002 439,769.5C 445.633,757.22 452.633,745.22 460,733.5C 467.647,717.923 467.313,702.59 459,687.5C 451.333,677.833 443.667,668.167 436,658.5C 426.005,640.888 426.005,623.222 436,605.5C 443,595.5 450,585.5 457,575.5C 462.124,566.113 463.791,556.113 462,545.5C 456.911,531.314 451.244,517.314 445,503.5C 440.505,477.48 446.338,454.146 462.5,433.5C 462.167,433.167 461.833,432.833 461.5,432.5C 454.525,436.308 449.025,441.642 445,448.5C 435.611,464.65 431.611,481.983 433,500.5C 438.29,516.747 443.29,533.08 448,549.5C 449.115,559.809 447.115,569.476 442,578.5C 434.615,587.55 427.615,596.884 421,606.5C 411.11,623.162 411.11,639.829 421,656.5C 427.667,665.167 434.333,673.833 441,682.5C 446.003,689.507 449.67,697.174 452,705.5C 452.667,709.167 452.667,712.833 452,716.5C 449.832,723.838 446.832,730.838 443,737.5C 436.501,746.494 430.501,755.827 425,765.5C 422.91,769.599 421.744,773.933 421.5,778.5 Z"/></g>
<g><path style="opacity:1" fill="#fcfcfc" d="M 655.5,374.5 C 658.059,374.198 660.393,374.532 662.5,375.5C 656.092,386.646 649.925,397.98 644,409.5C 641.823,416.384 640.157,423.384 639,430.5C 620.604,422.718 601.771,416.218 582.5,411C 531.872,401.558 483.539,408.392 437.5,431.5C 432.324,411.484 423.658,393.15 411.5,376.5C 415.459,375.34 419.459,375.173 423.5,376C 433.827,378.83 443.827,382.33 453.5,386.5C 452.578,374.149 448.912,362.649 442.5,352C 442.905,351.055 443.572,350.388 444.5,350C 447.558,349.542 450.558,349.876 453.5,351C 469.231,357.698 484.231,365.698 498.5,375C 499.5,375.667 500.5,375.667 501.5,375C 508.321,365.209 512.155,354.376 513,342.5C 504.969,335.3 497.136,327.967 489.5,320.5C 490.802,318.972 492.469,317.972 494.5,317.5C 503.848,317.099 513.182,316.433 522.5,315.5C 527.333,305.167 532.167,294.833 537,284.5C 542.78,294.227 547.614,304.393 551.5,315C 562.437,316.477 573.437,317.31 584.5,317.5C 584.649,318.552 584.483,319.552 584,320.5C 576.636,328.198 568.97,335.531 561,342.5C 563.42,353.419 567.254,363.919 572.5,374C 584.988,367.418 597.655,360.751 610.5,354C 617.222,351.156 624.222,349.656 631.5,349.5C 628.627,358.917 625.461,368.25 622,377.5C 621.503,380.146 621.336,382.813 621.5,385.5C 630.246,382.639 638.913,379.473 647.5,376C 650.117,375.178 652.784,374.678 655.5,374.5 Z"/></g>
<g><path style="opacity:1" fill="#878787" d="M 494.5,317.5 C 492.469,317.972 490.802,318.972 489.5,320.5C 488.596,319.791 488.263,318.791 488.5,317.5C 490.5,317.5 492.5,317.5 494.5,317.5 Z"/></g>
<g><path style="opacity:1" fill="#090909" d="M 534.5,362.5 C 544.74,367.21 553.907,373.543 562,381.5C 562.507,382.996 562.007,384.163 560.5,385C 544.49,385.833 528.49,385.666 512.5,384.5C 511.572,383.232 511.405,381.899 512,380.5C 519.976,375.016 527.476,369.016 534.5,362.5 Z"/></g>
<g><path style="opacity:1" fill="#707070" d="M 655.5,374.5 C 658.024,373.2 660.691,373.2 663.5,374.5C 663.376,375.107 663.043,375.44 662.5,375.5C 660.393,374.532 658.059,374.198 655.5,374.5 Z"/></g>
<g><path style="opacity:1" fill="#fcfdfd" d="M 132.5,377.5 C 140.078,380.964 147.078,385.464 153.5,391C 139.297,401.24 133.13,415.073 135,432.5C 137.949,439.03 142.449,440.197 148.5,436C 155.123,427.369 160.956,418.202 166,408.5C 180.546,391.324 197.38,388.824 216.5,401C 226.334,410.32 231,421.82 230.5,435.5C 229.398,460.204 219.398,480.37 200.5,496C 192.406,492.947 184.739,488.781 177.5,483.5C 186.614,476.302 194.114,467.636 200,457.5C 203.854,450.242 204.187,442.908 201,435.5C 197.385,431.683 193.552,431.517 189.5,435C 182.967,441.89 177.8,449.724 174,458.5C 162.891,473.646 148.391,478.146 130.5,472C 112.549,460.874 105.383,444.708 109,423.5C 111.832,405.501 119.665,390.168 132.5,377.5 Z"/></g>
<g><path style="opacity:1" fill="#fcfdfd" d="M 915.5,386.5 C 937.633,385.823 952.8,395.823 961,416.5C 967.791,433.005 969.291,450.005 965.5,467.5C 957.833,467.5 950.167,467.5 942.5,467.5C 945.324,456.921 945.824,446.255 944,435.5C 942.341,427.513 937.674,422.513 930,420.5C 927.966,420.354 926.299,421.02 925,422.5C 923.107,425.618 921.774,428.951 921,432.5C 921.828,443.136 922.161,453.803 922,464.5C 914.037,488.732 897.871,496.898 873.5,489C 853.363,474.901 843.029,455.401 842.5,430.5C 842.503,421.816 844.17,413.483 847.5,405.5C 855.5,404.167 863.5,404.167 871.5,405.5C 870.033,409.069 868.866,412.736 868,416.5C 867.333,424.167 867.333,431.833 868,439.5C 869.659,446.006 873.159,451.173 878.5,455C 884.414,455.761 888.247,453.261 890,447.5C 890.478,439.827 890.311,432.16 889.5,424.5C 889.236,405.473 897.902,392.807 915.5,386.5 Z"/></g>
<g><path style="opacity:1" fill="#fcfdfc" d="M 320.5,395.5 C 323.425,395.46 326.091,396.293 328.5,398C 343.188,410.545 351.688,426.378 354,445.5C 364.77,440.687 375.937,436.854 387.5,434C 396.989,432.896 406.323,433.562 415.5,436C 417.555,436.687 419.221,437.854 420.5,439.5C 415.907,444.59 410.574,448.757 404.5,452C 392.016,463.143 381.016,475.476 371.5,489C 362.457,489.192 353.457,489.859 344.5,491C 330.052,496.724 315.718,502.724 301.5,509C 293.955,510.126 286.621,509.46 279.5,507C 278.483,505.951 278.316,504.784 279,503.5C 287.333,490.5 295.667,477.5 304,464.5C 316.781,443.092 322.281,420.092 320.5,395.5 Z"/></g>
<g><path style="opacity:1" fill="#fcfcfc" d="M 751.5,396.5 C 753.722,396.178 755.556,396.845 757,398.5C 754.47,416.531 756.803,433.864 764,450.5C 773.977,469.46 785.144,487.626 797.5,505C 790.969,510.048 783.635,511.715 775.5,510C 770.628,508.897 765.962,507.23 761.5,505C 751.058,498.111 739.725,493.444 727.5,491C 719.833,490.667 712.167,490.333 704.5,490C 691.93,470.263 675.596,454.429 655.5,442.5C 654.417,441.635 654.251,440.635 655,439.5C 657.672,436.16 661.172,434.326 665.5,434C 675.628,432.958 685.628,433.625 695.5,436C 704.163,439.607 712.829,443.107 721.5,446.5C 723.752,424.971 733.752,408.304 751.5,396.5 Z"/></g>
<g><path style="opacity:1" fill="#fbfcfc" d="M 522.5,418.5 C 534.203,418.232 545.869,418.732 557.5,420C 572.792,422.629 583.292,431.129 589,445.5C 589.494,447.134 589.66,448.801 589.5,450.5C 575.657,447.989 562.324,449.489 549.5,455C 546.836,457.669 545.002,460.836 544,464.5C 543.333,471.5 543.333,478.5 544,485.5C 544.541,488.209 546.041,490.209 548.5,491.5C 551.273,488.804 553.94,485.971 556.5,483C 557.5,482.833 558.5,482.667 559.5,482.5C 567.499,485.166 575.499,485.166 583.5,482.5C 585.383,482.876 586.883,483.876 588,485.5C 589.273,509.674 581.439,530.507 564.5,548C 551.049,559.352 536.049,561.685 519.5,555C 494.36,539.224 482.527,516.391 484,486.5C 484.948,484.43 486.448,482.93 488.5,482C 492.323,483.041 496.323,483.874 500.5,484.5C 504.704,484.074 508.871,483.407 513,482.5C 516.387,482.796 519.554,483.796 522.5,485.5C 528.202,481.236 530.035,475.569 528,468.5C 528.191,457.354 522.691,451.187 511.5,450C 504.167,449.667 496.833,449.333 489.5,449C 488.426,448.261 487.759,447.261 487.5,446C 491.306,435.369 498.306,427.702 508.5,423C 513.371,421.709 518.037,420.209 522.5,418.5 Z"/></g>
<g><path style="opacity:1" fill="#eceded" d="M 492.5,459.5 C 502.32,458.25 509.986,461.584 515.5,469.5C 514.5,469.833 513.5,470.167 512.5,470.5C 506.596,468.766 500.596,468.266 494.5,469C 492.379,472.665 489.879,473.165 487,470.5C 484.967,464.547 486.8,460.881 492.5,459.5 Z"/></g>
<g><path style="opacity:1" fill="#eff1f0" d="M 571.5,460.5 C 576.777,459.931 581.777,460.765 586.5,463C 589.38,466.543 589.047,469.71 585.5,472.5C 577.054,468.353 568.387,467.519 559.5,470C 558.065,467.733 558.398,465.733 560.5,464C 564.268,462.762 567.934,461.596 571.5,460.5 Z"/></g>
<g><path style="opacity:1" fill="#161616" d="M 533.5,500.5 C 538.533,499.909 543.2,500.909 547.5,503.5C 548.644,506.248 547.644,508.081 544.5,509C 538.5,509.667 532.5,509.667 526.5,509C 525.446,507.612 525.28,506.112 526,504.5C 528.417,502.872 530.917,501.539 533.5,500.5 Z"/></g>
<g><path style="opacity:1" fill="#090909" d="M 515.5,521.5 C 529.849,521.167 544.182,521.501 558.5,522.5C 543.404,544.143 529.071,543.81 515.5,521.5 Z"/></g>
<g><path style="opacity:1" fill="#fcfdfd" d="M 175.5,616.5 C 187.455,618.48 199.788,619.146 212.5,618.5C 203.83,625.934 194.996,633.267 186,640.5C 187.206,652.39 189.706,664.057 193.5,675.5C 193.167,675.833 192.833,676.167 192.5,676.5C 183.578,669.791 174.411,663.457 165,657.5C 154.938,662.781 145.104,668.447 135.5,674.5C 135.167,674 134.833,673.5 134.5,673C 137.43,662.772 140.43,652.606 143.5,642.5C 134.692,634.93 125.692,627.596 116.5,620.5C 128.167,619.833 139.833,619.167 151.5,618.5C 156.442,607.794 160.942,596.794 165,585.5C 168.804,595.746 172.304,606.079 175.5,616.5 Z"/></g>
<g><path style="opacity:1" fill="#fcfdfd" d="M 920.5,617.5 C 932.5,618.167 944.5,618.833 956.5,619.5C 947.54,626.622 938.707,633.955 930,641.5C 932.331,653.162 934.664,664.829 937,676.5C 927.971,669.972 918.804,663.638 909.5,657.5C 899.086,663.122 888.92,669.122 879,675.5C 882.063,664.3 884.73,652.967 887,641.5C 877.892,634.693 869.058,627.526 860.5,620C 872.514,619.833 884.514,619.333 896.5,618.5C 900.836,607.824 905.169,597.157 909.5,586.5C 913.762,596.62 917.429,606.953 920.5,617.5 Z"/></g>
<g><path style="opacity:1" fill="#6eae9c" d="M 175.5,616.5 C 188.502,617.131 200.835,617.797 212.5,618.5C 199.788,619.146 187.455,618.48 175.5,616.5 Z"/></g>
<g><path style="opacity:1" fill="#5ea691" d="M 920.5,617.5 C 932.851,617.168 945.185,617.501 957.5,618.5C 957.376,619.107 957.043,619.44 956.5,619.5C 944.5,618.833 932.5,618.167 920.5,617.5 Z"/></g>
<g><path style="opacity:1" fill="#61a793" d="M 151.5,618.5 C 139.833,619.167 128.167,619.833 116.5,620.5C 115.957,620.44 115.624,620.107 115.5,619.5C 127.482,618.501 139.482,618.168 151.5,618.5 Z"/></g>
<g><path style="opacity:1" fill="#fdfdfd" d="M 254.5,747.5 C 292.537,745.045 317.537,761.879 329.5,798C 323.138,802.851 316.138,806.684 308.5,809.5C 304.634,797.136 296.968,787.969 285.5,782C 264.061,776.805 249.561,784.638 242,805.5C 239.945,826.831 249.445,840.331 270.5,846C 273.817,846.498 277.15,846.665 280.5,846.5C 278.39,854.221 275.057,861.387 270.5,868C 237.853,866.425 217.019,849.925 208,818.5C 203.623,791.59 212.456,770.423 234.5,755C 240.878,751.379 247.545,748.879 254.5,747.5 Z"/></g>
<g><path style="opacity:1" fill="#fdfdfd" d="M 782.5,752.5 C 789.198,756.686 795.198,761.853 800.5,768C 788.667,779.167 776.833,790.333 765,801.5C 765.044,803.279 765.711,804.945 767,806.5C 769.647,810.314 772.813,813.647 776.5,816.5C 788.045,808.556 799.045,799.89 809.5,790.5C 815.205,795.204 820.205,800.537 824.5,806.5C 814.507,815.657 804.341,824.657 794,833.5C 793.333,834.5 793.333,835.5 794,836.5C 797,840.5 800,844.5 803,848.5C 804.113,850.329 805.613,851.163 807.5,851C 820.054,840.108 832.887,829.608 846,819.5C 851.614,824.949 857.114,830.616 862.5,836.5C 840.664,858.343 817.331,878.343 792.5,896.5C 769.258,867.014 746.258,837.347 723.5,807.5C 736.956,795.881 750.29,784.048 763.5,772C 770.036,765.631 776.369,759.131 782.5,752.5 Z"/></g>
<g><path style="opacity:1" fill="#929493" d="M 421.5,778.5 C 421.813,781.247 421.48,783.914 420.5,786.5C 419.893,786.376 419.56,786.043 419.5,785.5C 420.167,783.167 420.833,780.833 421.5,778.5 Z"/></g>
<g><path style="opacity:1" fill="#fdfdfd" d="M 345.5,813.5 C 373.496,811.749 395.329,822.415 411,845.5C 422.286,869.126 420.619,891.792 406,913.5C 381.449,939.103 353.615,943.27 322.5,926C 295.507,906.017 287.673,880.184 299,848.5C 309.151,829.68 324.651,818.013 345.5,813.5 Z"/></g>
<g><path style="opacity:1" fill="#fdfdfd" d="M 708.5,814.5 C 709.496,814.414 710.329,814.748 711,815.5C 714.887,821.439 718.387,827.606 721.5,834C 707.51,841.997 693.176,849.497 678.5,856.5C 677.417,857.365 677.251,858.365 678,859.5C 680.106,864.837 682.773,869.837 686,874.5C 699.037,869.648 711.703,863.982 724,857.5C 727.77,864.04 731.27,870.707 734.5,877.5C 731.87,879.821 728.87,881.654 725.5,883C 715.926,887.038 706.426,891.204 697,895.5C 698.239,902.047 700.405,908.38 703.5,914.5C 705.466,915.372 707.466,915.205 709.5,914C 723,908.167 736.5,902.333 750,896.5C 751.261,896.759 752.261,897.426 753,898.5C 755.912,904.658 759.079,910.658 762.5,916.5C 735.304,931.93 706.971,944.93 677.5,955.5C 664.738,920.638 651.405,885.972 637.5,851.5C 637.833,850.833 638.167,850.167 638.5,849.5C 662.7,839.4 686.033,827.734 708.5,814.5 Z"/></g>
<g><path style="opacity:1" fill="#0a7756" d="M 355.5,842.5 C 376.879,842.382 386.712,853.049 385,874.5C 381.955,890.108 373.122,900.942 358.5,907C 335.332,907.822 325.498,896.656 329,873.5C 333.069,858.942 341.902,848.609 355.5,842.5 Z"/></g>
<g><path style="opacity:1" fill="#fdfdfd" d="M 443.5,852.5 C 470.779,857.602 498.112,862.269 525.5,866.5C 524.444,876.169 523.444,885.836 522.5,895.5C 506.289,893.158 490.122,890.491 474,887.5C 473.5,887.833 473,888.167 472.5,888.5C 471.406,894.045 470.072,899.545 468.5,905C 468.645,905.772 468.978,906.439 469.5,907C 483.334,910.472 497.334,912.972 511.5,914.5C 509.908,923.459 508.575,932.459 507.5,941.5C 492.49,939.276 477.49,936.943 462.5,934.5C 459.813,947.249 456.813,959.916 453.5,972.5C 441.548,970.91 429.881,968.077 418.5,964C 417.572,963.612 416.905,962.945 416.5,962C 426.21,925.66 435.21,889.16 443.5,852.5 Z"/></g>
<g><path style="opacity:1" fill="#fdfdfd" d="M 619.5,854.5 C 620.5,854.5 621.5,854.5 622.5,854.5C 623.412,862.717 624.746,870.884 626.5,879C 626.441,880.436 626.108,881.769 625.5,883C 609.501,885.214 593.501,887.381 577.5,889.5C 578.227,896.158 578.893,902.825 579.5,909.5C 592.756,909.098 605.923,907.765 619,905.5C 620.167,905.833 621.333,906.167 622.5,906.5C 624.02,914.804 625.353,923.137 626.5,931.5C 611.928,934.147 597.262,936.147 582.5,937.5C 583.895,950.792 584.562,964.125 584.5,977.5C 571.881,978.958 559.214,979.625 546.5,979.5C 544.499,941.146 542.166,902.813 539.5,864.5C 566.464,862.474 593.131,859.14 619.5,854.5 Z"/></g>
<g><path style="opacity:0.966" fill="#0b1511" d="M 863.5,963.5 C 889.155,961.989 901.321,973.989 900,999.5C 894.339,1017.26 882.172,1024.76 863.5,1022C 846.044,1016.61 838.544,1004.77 841,986.5C 844.006,974.328 851.506,966.661 863.5,963.5 Z M 867.5,968.5 C 883.629,968.795 892.629,976.962 894.5,993C 891.89,1011.95 881.223,1019.62 862.5,1016C 852.237,1011.82 846.904,1004.15 846.5,993C 847.685,979.66 854.685,971.494 867.5,968.5 Z M 864.5,980.5 C 867.85,980.335 871.183,980.502 874.5,981C 879.094,983.197 879.594,986.03 876,989.5C 872.224,990.394 868.39,990.728 864.5,990.5C 864.5,987.167 864.5,983.833 864.5,980.5 Z"/></g>
<g><path style="opacity:0.463" fill="#045c42" d="M 876.5,976.5 C 870.833,976.5 865.167,976.5 859.5,976.5C 859.5,987.5 859.5,998.5 859.5,1009.5C 861.167,1009.5 862.833,1009.5 864.5,1009.5C 862.735,1010.46 860.735,1010.79 858.5,1010.5C 858.5,998.833 858.5,987.167 858.5,975.5C 864.69,975.177 870.69,975.51 876.5,976.5 Z"/></g>
<g><path style="opacity:0.96" fill="#08100c" d="M 876.5,976.5 C 880.637,976.482 883.137,978.482 884,982.5C 884.79,985.634 884.457,988.634 883,991.5C 880.963,993.436 878.797,995.102 876.5,996.5C 879.376,1001.09 882.376,1005.59 885.5,1010C 883.098,1010.81 880.765,1010.65 878.5,1009.5C 875.833,1005.17 873.167,1000.83 870.5,996.5C 868.604,995.534 866.604,995.201 864.5,995.5C 864.5,1000.17 864.5,1004.83 864.5,1009.5C 862.833,1009.5 861.167,1009.5 859.5,1009.5C 859.5,998.5 859.5,987.5 859.5,976.5C 865.167,976.5 870.833,976.5 876.5,976.5 Z M 864.5,980.5 C 864.5,983.833 864.5,987.167 864.5,990.5C 868.39,990.728 872.224,990.394 876,989.5C 879.594,986.03 879.094,983.197 874.5,981C 871.183,980.502 867.85,980.335 864.5,980.5 Z"/></g>
</svg>
