<?xml version="1.0" encoding="UTF-8"?>
<!DOCTYPE svg PUBLIC "-//W3C//DTD SVG 1.1//EN" "http://www.w3.org/Graphics/SVG/1.1/DTD/svg11.dtd">
<svg xmlns="http://www.w3.org/2000/svg" version="1.1" width="2560px" height="1095px" style="shape-rendering:geometricPrecision; text-rendering:geometricPrecision; image-rendering:optimizeQuality; fill-rule:evenodd; clip-rule:evenodd" xmlns:xlink="http://www.w3.org/1999/xlink">
<g><path style="opacity:0.996" fill="#dd1337" d="M 1767.5,30.5 C 1775.17,30.3336 1782.84,30.5003 1790.5,31C 1804.53,33.366 1814.03,41.1994 1819,54.5C 1821.76,73.5275 1820.09,92.1941 1814,110.5C 1791.92,183.814 1774.09,258.147 1760.5,333.5C 1760.41,335.912 1761.41,337.745 1763.5,339C 1792.04,355.602 1802.54,380.102 1795,412.5C 1788.62,441.713 1770.45,457.046 1740.5,458.5C 1735.31,503.084 1730.81,547.751 1727,592.5C 1724.85,622.826 1724.52,653.159 1726,683.5C 1727.29,698.635 1730.63,713.301 1736,727.5C 1742.67,740.167 1749.33,752.833 1756,765.5C 1760.46,801.081 1746.29,826.248 1713.5,841C 1679.35,852.949 1652.18,844.116 1632,814.5C 1617.66,790.81 1609.33,765.144 1607,737.5C 1606.67,722.5 1606.33,707.5 1606,692.5C 1566.58,737.583 1518.75,770.416 1462.5,791C 1440.24,797.844 1417.57,799.844 1394.5,797C 1381.88,793.939 1371.38,787.439 1363,777.5C 1360,773.167 1357,768.833 1354,764.5C 1332.86,800.485 1301.69,814.985 1260.5,808C 1242,798.833 1228.17,785 1219,766.5C 1201.8,727.502 1193.97,686.669 1195.5,644C 1195.39,610.324 1197.73,576.824 1202.5,543.5C 1190.3,546.1 1179.63,551.6 1170.5,560C 1150.19,579.107 1134.69,601.607 1124,627.5C 1115.28,647.311 1107.95,667.644 1102,688.5C 1094.25,719.904 1086.25,751.238 1078,782.5C 1064.13,827.343 1033.97,846.843 987.5,841C 975.052,835.216 966.885,825.716 963,812.5C 960.214,804.357 958.214,796.024 957,787.5C 953.548,723.919 958.215,660.919 971,598.5C 980.445,544.387 994.112,491.387 1012,439.5C 1022.62,408.885 1041.46,384.718 1068.5,367C 1086.69,356.498 1106.02,353.498 1126.5,358C 1141.91,364.255 1149.57,375.755 1149.5,392.5C 1148.02,407.764 1144.19,422.431 1138,436.5C 1131.05,452.386 1124.71,468.386 1119,484.5C 1141.54,453.626 1168.37,427.126 1199.5,405C 1216.75,393.71 1235.41,385.71 1255.5,381C 1290.24,374.113 1313.41,387.28 1325,420.5C 1327.77,432.33 1329.27,444.33 1329.5,456.5C 1328.78,467.838 1327.94,479.171 1327,490.5C 1322.76,519.183 1318.43,547.85 1314,576.5C 1311.52,599.603 1312.18,622.603 1316,645.5C 1319,663.835 1327,679.501 1340,692.5C 1350.59,580.141 1398.09,486.974 1482.5,413C 1530.92,371.619 1586.26,343.119 1648.5,327.5C 1657.62,259.711 1670.79,192.711 1688,126.5C 1693.24,105.435 1701.57,85.7686 1713,67.5C 1726.5,48.1484 1744.67,35.815 1767.5,30.5 Z M 1624.5,458.5 C 1625.83,458.5 1627.17,458.5 1628.5,458.5C 1624.64,480.956 1618.14,502.623 1609,523.5C 1588.29,570.189 1559.13,610.689 1521.5,645C 1511.85,652.492 1501.85,659.492 1491.5,666C 1485.93,668.966 1480.1,671.133 1474,672.5C 1466.08,670.684 1463.25,665.684 1465.5,657.5C 1467.44,630.851 1474.94,605.851 1488,582.5C 1512.18,537.315 1546.01,501.149 1589.5,474C 1600.8,467.678 1612.46,462.512 1624.5,458.5 Z"/></g>
<g><path style="opacity:0.996" fill="#dd1337" d="M 664.5,140.5 C 692.384,140.199 710.217,153.532 718,180.5C 721.71,196.338 721.044,212.004 716,227.5C 679.366,326.07 648.366,426.404 623,528.5C 613.357,566.072 604.19,603.738 595.5,641.5C 610.008,644.002 624.508,646.335 639,648.5C 651.41,606.61 667.743,566.276 688,527.5C 714.105,478.725 750.605,439.559 797.5,410C 831.442,390.428 867.776,383.094 906.5,388C 937.859,397.702 956.025,418.868 961,451.5C 964.427,500.695 954.427,547.028 931,590.5C 903.131,641.704 864.297,682.537 814.5,713C 795.131,724.017 774.798,732.85 753.5,739.5C 751.773,765.109 763.773,778.442 789.5,779.5C 800.948,779.629 811.614,776.796 821.5,771C 833.224,762.277 845.224,753.944 857.5,746C 871.418,737.9 886.085,735.9 901.5,740C 912.959,746.832 918.293,756.999 917.5,770.5C 916.58,786.761 911.746,801.761 903,815.5C 868.429,868.715 819.263,897.049 755.5,900.5C 718.921,902.121 688.754,889.121 665,861.5C 650.478,843.792 640.144,823.792 634,801.5C 630.126,785.961 626.959,770.294 624.5,754.5C 607.573,751.463 590.573,748.796 573.5,746.5C 572.006,746.709 570.839,747.376 570,748.5C 555.454,811.684 540.121,874.684 524,937.5C 516.464,974.369 494.297,996.536 457.5,1004C 436.649,1008.42 416.315,1006.75 396.5,999C 384.501,994.001 375.334,985.834 369,974.5C 365.221,967.828 362.221,960.828 360,953.5C 344.918,895.008 334.585,835.675 329,775.5C 323.268,723.318 319.935,670.985 319,618.5C 318.815,614.344 317.982,610.344 316.5,606.5C 311.671,609.144 308.505,613.144 307,618.5C 284.11,695.392 262.777,772.725 243,850.5C 229.315,907.241 215.315,963.908 201,1020.5C 195.265,1040.22 184.098,1056.06 167.5,1068C 140.455,1086.01 110.788,1092.68 78.5,1088C 62.2747,1083.78 50.108,1074.28 42,1059.5C 30.9369,1037.31 23.2702,1013.98 19,989.5C 11.5467,949.516 7.21336,909.183 6,868.5C 3.19779,814.515 2.86446,760.515 5,706.5C 8.63843,618.065 13.9718,529.732 21,441.5C 21.8999,417.169 22.7333,392.835 23.5,368.5C 24.7733,348.067 21.6066,328.401 14,309.5C 11.2467,304.992 8.24666,300.659 5,296.5C 2.93495,293.04 1.43495,289.374 0.5,285.5C 1.15331,281.191 2.65331,277.191 5,273.5C 20.5434,256.803 39.3767,245.303 61.5,239C 80.6594,232.418 100.326,230.085 120.5,232C 140.531,235.58 153.365,247.08 159,266.5C 160.749,275.412 161.583,284.412 161.5,293.5C 160.497,315.865 158.997,338.199 157,360.5C 151.26,409.825 145.593,459.159 140,508.5C 132.677,579.665 128.011,650.998 126,722.5C 125.333,744.5 125.333,766.5 126,788.5C 126.253,795.876 126.919,803.209 128,810.5C 129.199,817.405 132.532,818.405 138,813.5C 139.667,810.167 141.333,806.833 143,803.5C 181.228,658.816 225.895,516.149 277,375.5C 283.831,356.341 291.831,337.674 301,319.5C 318.131,289.648 343.964,277.148 378.5,282C 409.752,286.585 427.585,304.418 432,335.5C 431.766,396.499 431.766,457.499 432,518.5C 434.279,581.186 436.945,643.852 440,706.5C 441.099,721.629 443.099,736.629 446,751.5C 446.892,754.284 448.058,756.95 449.5,759.5C 454.063,761.542 457.229,760.208 459,755.5C 471.509,697.623 483.509,639.623 495,581.5C 518.862,467.718 548.195,355.385 583,244.5C 592.033,216.101 605.033,189.768 622,165.5C 633.008,151.587 647.175,143.253 664.5,140.5 Z M 850.5,489.5 C 855.855,488.345 860.022,490.012 863,494.5C 866.003,508.488 864.669,522.155 859,535.5C 840.241,578.927 810.741,613.093 770.5,638C 763.484,642.011 756.15,645.178 748.5,647.5C 749.941,634.735 753.108,622.401 758,610.5C 773.387,574.031 794.053,541.031 820,511.5C 828.944,502.296 839.111,494.963 850.5,489.5 Z"/></g>
<g><path style="opacity:0.992" fill="#dd1337" d="M 2254.5,205.5 C 2285.91,202.112 2307.08,215.112 2318,244.5C 2326.57,288.202 2317.24,327.536 2290,362.5C 2270.98,382.697 2249.15,386.53 2224.5,374C 2213.47,364.234 2209.64,352.067 2213,337.5C 2216.33,326.167 2219.67,314.833 2223,303.5C 2224.16,297.213 2224.99,290.879 2225.5,284.5C 2223.73,271.517 2222.06,258.517 2220.5,245.5C 2221.48,223.199 2232.81,209.865 2254.5,205.5 Z"/></g>
<g><path style="opacity:0.995" fill="#dd1337" d="M 1913.5,332.5 C 1954.07,330.898 1971.9,350.231 1967,390.5C 1965.4,397.286 1963.4,403.953 1961,410.5C 1929.13,470.975 1910.8,535.308 1906,603.5C 1905.33,613.833 1905.33,624.167 1906,634.5C 1906.2,644.391 1908.54,653.724 1913,662.5C 1914.95,664.894 1917.45,666.394 1920.5,667C 1926.69,667.984 1932.69,667.318 1938.5,665C 1950.65,655.847 1961.15,645.014 1970,632.5C 1984.93,610.655 1997.26,587.321 2007,562.5C 2024.03,510.381 2041.36,458.381 2059,406.5C 2066.36,387.598 2076.86,370.765 2090.5,356C 2100.51,346.491 2112.18,339.825 2125.5,336C 2134.45,334.487 2143.45,334.154 2152.5,335C 2173.36,339.864 2185.19,353.03 2188,374.5C 2189.7,395.443 2188.03,416.109 2183,436.5C 2167.77,495.41 2154.44,554.744 2143,614.5C 2138.16,642.046 2134.16,669.712 2131,697.5C 2126.61,738.494 2122.28,779.494 2118,820.5C 2112.62,868.982 2098.95,914.982 2077,958.5C 2046.01,1011.14 2001.18,1046.31 1942.5,1064C 1907.95,1074.74 1872.62,1079.07 1836.5,1077C 1807.15,1074.9 1781.98,1063.73 1761,1043.5C 1744.16,1022.32 1739.5,998.653 1747,972.5C 1754.09,957.693 1765.93,950.027 1782.5,949.5C 1803.53,952.942 1824.7,954.942 1846,955.5C 1877.15,956.753 1906.32,949.92 1933.5,935C 1950.43,924.306 1963.59,910.139 1973,892.5C 1988.01,866.122 1997.01,837.788 2000,807.5C 2003.23,779.464 2006.23,751.464 2009,723.5C 1983.39,757.784 1951.22,783.95 1912.5,802C 1873,816.055 1841.5,805.888 1818,771.5C 1799.12,737.676 1788.79,701.343 1787,662.5C 1782.79,591.613 1790.12,521.947 1809,453.5C 1817.98,422.545 1831.98,394.211 1851,368.5C 1863.15,353.349 1878.32,342.516 1896.5,336C 1902.26,334.614 1907.93,333.448 1913.5,332.5 Z"/></g>
<g><path style="opacity:0.995" fill="#dd1337" d="M 2424.5,344.5 C 2502.6,346.106 2537.1,385.773 2528,463.5C 2525.57,480.793 2519.24,496.459 2509,510.5C 2494.71,526.87 2476.88,532.704 2455.5,528C 2441.48,525.649 2431.98,517.816 2427,504.5C 2423.98,493.433 2420.82,482.433 2417.5,471.5C 2414.39,469.239 2410.89,467.906 2407,467.5C 2380.79,472.097 2359.13,484.431 2342,504.5C 2335.1,514.787 2336.26,523.954 2345.5,532C 2358.31,542.243 2371.98,551.243 2386.5,559C 2415.14,571.641 2441.81,587.308 2466.5,606C 2480.73,618.219 2491.9,632.719 2500,649.5C 2507.82,675.706 2506.15,701.372 2495,726.5C 2484.71,749.24 2469.54,768.073 2449.5,783C 2392.91,822.148 2330.24,837.814 2261.5,830C 2239.51,827.231 2219.51,819.564 2201.5,807C 2174.06,782.953 2164.22,753.12 2172,717.5C 2179.07,696.094 2193.57,682.594 2215.5,677C 2227.96,674.186 2239.96,675.52 2251.5,681C 2257.76,684.27 2263.76,687.936 2269.5,692C 2294.27,704.898 2320.27,708.231 2347.5,702C 2351.33,700.254 2354.99,698.254 2358.5,696C 2363.12,692.336 2363.62,688.169 2360,683.5C 2355.76,678.585 2350.92,674.419 2345.5,671C 2316.17,656 2286.83,641 2257.5,626C 2235.18,612.682 2218.01,594.515 2206,571.5C 2198.54,544.807 2200.54,518.807 2212,493.5C 2250.77,418.747 2310.93,370.58 2392.5,349C 2403.23,346.871 2413.9,345.371 2424.5,344.5 Z"/></g>
<g><path style="opacity:0.844" fill="#000000" d="M 2519.5,793.5 C 2544.36,792.854 2555.52,804.854 2553,829.5C 2546.41,846.882 2533.91,853.382 2515.5,849C 2497.73,840.62 2492.23,827.12 2499,808.5C 2503.8,800.51 2510.63,795.51 2519.5,793.5 Z M 2519.5,800.5 C 2535.39,799.102 2544.39,806.269 2546.5,822C 2542.79,841.353 2531.79,847.353 2513.5,840C 2503.33,830.451 2501.83,819.618 2509,807.5C 2512.15,804.488 2515.65,802.155 2519.5,800.5 Z M 2521.5,813.5 C 2523.86,813.337 2526.19,813.503 2528.5,814C 2529.36,814.689 2530.02,815.522 2530.5,816.5C 2524.83,822.567 2521.83,821.567 2521.5,813.5 Z"/></g>
<g><path style="opacity:0.844" fill="#000000" d="M 2514.5,807.5 C 2522.28,806.848 2529.78,807.848 2537,810.5C 2536.17,819.16 2536.34,827.826 2537.5,836.5C 2535.4,836.799 2533.4,836.466 2531.5,835.5C 2524.89,821.597 2521.22,822.264 2520.5,837.5C 2518.5,837.5 2516.5,837.5 2514.5,837.5C 2513.27,827.49 2513.27,817.49 2514.5,807.5 Z M 2521.5,813.5 C 2521.83,821.567 2524.83,822.567 2530.5,816.5C 2530.02,815.522 2529.36,814.689 2528.5,814C 2526.19,813.503 2523.86,813.337 2521.5,813.5 Z"/></g>
</svg>
